<mxfile host="app.diagrams.net" agent="Mozilla/5.0 (Windows NT 10.0; Win64; x64) AppleWebKit/537.36 (KHTML, like Gecko) Chrome/131.0.0.0 Safari/537.36" version="24.8.6">
  <diagram name="Page-1" id="dggMZjzIFh-FJJccqIbM">
    <mxGraphModel dx="1518" dy="614" grid="1" gridSize="10" guides="1" tooltips="1" connect="1" arrows="1" fold="1" page="1" pageScale="1" pageWidth="850" pageHeight="1100" math="0" shadow="0">
      <root>
        <mxCell id="0" />
        <mxCell id="1" parent="0" />
        <mxCell id="v6DgjrGTPhHNJOSe_AkJ-1" value="" style="rounded=0;whiteSpace=wrap;html=1;" vertex="1" parent="1">
          <mxGeometry width="850" height="60" as="geometry" />
        </mxCell>
        <mxCell id="v6DgjrGTPhHNJOSe_AkJ-10" value="&lt;h1&gt;Dynamic Resume&lt;/h1&gt;" style="text;html=1;align=center;verticalAlign=middle;whiteSpace=wrap;rounded=0;" vertex="1" parent="1">
          <mxGeometry x="170" y="15" width="220" height="30" as="geometry" />
        </mxCell>
        <mxCell id="v6DgjrGTPhHNJOSe_AkJ-11" value="Home" style="rounded=0;whiteSpace=wrap;html=1;" vertex="1" parent="1">
          <mxGeometry x="580" y="15" width="60" height="30" as="geometry" />
        </mxCell>
        <mxCell id="v6DgjrGTPhHNJOSe_AkJ-12" value="Experience" style="rounded=0;whiteSpace=wrap;html=1;" vertex="1" parent="1">
          <mxGeometry x="660" y="15" width="60" height="30" as="geometry" />
        </mxCell>
        <mxCell id="v6DgjrGTPhHNJOSe_AkJ-13" value="Education" style="rounded=0;whiteSpace=wrap;html=1;" vertex="1" parent="1">
          <mxGeometry x="740" y="15" width="60" height="30" as="geometry" />
        </mxCell>
        <mxCell id="v6DgjrGTPhHNJOSe_AkJ-19" value="" style="rounded=1;whiteSpace=wrap;html=1;" vertex="1" parent="1">
          <mxGeometry x="160" y="140" width="550" height="160" as="geometry" />
        </mxCell>
        <mxCell id="v6DgjrGTPhHNJOSe_AkJ-16" value="" style="endArrow=none;html=1;rounded=0;exitX=0.02;exitY=0.957;exitDx=0;exitDy=0;exitPerimeter=0;" edge="1" parent="1" source="v6DgjrGTPhHNJOSe_AkJ-19">
          <mxGeometry width="50" height="50" relative="1" as="geometry">
            <mxPoint x="160" y="302.8571428571429" as="sourcePoint" />
            <mxPoint x="330" y="140" as="targetPoint" />
          </mxGeometry>
        </mxCell>
        <mxCell id="v6DgjrGTPhHNJOSe_AkJ-17" value="" style="endArrow=none;html=1;rounded=0;exitX=0.015;exitY=0.042;exitDx=0;exitDy=0;exitPerimeter=0;" edge="1" parent="1" source="v6DgjrGTPhHNJOSe_AkJ-19">
          <mxGeometry width="50" height="50" relative="1" as="geometry">
            <mxPoint x="170" y="150" as="sourcePoint" />
            <mxPoint x="330" y="300" as="targetPoint" />
          </mxGeometry>
        </mxCell>
        <mxCell id="v6DgjrGTPhHNJOSe_AkJ-20" value="" style="endArrow=none;html=1;rounded=0;" edge="1" parent="1">
          <mxGeometry width="50" height="50" relative="1" as="geometry">
            <mxPoint x="330" y="300" as="sourcePoint" />
            <mxPoint x="330" y="140" as="targetPoint" />
          </mxGeometry>
        </mxCell>
        <mxCell id="v6DgjrGTPhHNJOSe_AkJ-21" value="&lt;h1 style=&quot;margin-top: 0px;&quot;&gt;Name&lt;/h1&gt;&lt;p&gt;&lt;b&gt;Contact Info:&amp;nbsp;&lt;/b&gt;Lorem ipsum dolor sit amet, consectetur adipisicing elit, sed do eiusmod tempor incididunt ut labore et dolore magna aliqua.&lt;/p&gt;" style="text;html=1;whiteSpace=wrap;overflow=hidden;rounded=0;" vertex="1" parent="1">
          <mxGeometry x="340" y="160" width="280" height="120" as="geometry" />
        </mxCell>
        <mxCell id="v6DgjrGTPhHNJOSe_AkJ-22" value="" style="rounded=0;whiteSpace=wrap;html=1;" vertex="1" parent="1">
          <mxGeometry y="560" width="850" height="40" as="geometry" />
        </mxCell>
        <mxCell id="v6DgjrGTPhHNJOSe_AkJ-2" value="" style="rounded=0;whiteSpace=wrap;html=1;" vertex="1" parent="1">
          <mxGeometry width="60" height="60" as="geometry" />
        </mxCell>
        <mxCell id="v6DgjrGTPhHNJOSe_AkJ-3" value="" style="endArrow=none;html=1;rounded=0;exitX=0;exitY=1;exitDx=0;exitDy=0;entryX=1;entryY=0;entryDx=0;entryDy=0;" edge="1" parent="1" source="v6DgjrGTPhHNJOSe_AkJ-2" target="v6DgjrGTPhHNJOSe_AkJ-2">
          <mxGeometry width="50" height="50" relative="1" as="geometry">
            <mxPoint x="400" y="100" as="sourcePoint" />
            <mxPoint x="450" y="50" as="targetPoint" />
          </mxGeometry>
        </mxCell>
        <mxCell id="v6DgjrGTPhHNJOSe_AkJ-4" value="" style="endArrow=none;html=1;rounded=0;exitX=0;exitY=0;exitDx=0;exitDy=0;entryX=1;entryY=1;entryDx=0;entryDy=0;" edge="1" parent="1" source="v6DgjrGTPhHNJOSe_AkJ-2" target="v6DgjrGTPhHNJOSe_AkJ-2">
          <mxGeometry width="50" height="50" relative="1" as="geometry">
            <mxPoint x="10" y="70" as="sourcePoint" />
            <mxPoint x="70" y="10" as="targetPoint" />
          </mxGeometry>
        </mxCell>
        <mxCell id="v6DgjrGTPhHNJOSe_AkJ-31" value="" style="rounded=0;whiteSpace=wrap;html=1;" vertex="1" parent="1">
          <mxGeometry x="690" y="565" width="30" height="30" as="geometry" />
        </mxCell>
        <mxCell id="v6DgjrGTPhHNJOSe_AkJ-32" value="" style="endArrow=none;html=1;rounded=0;exitX=0;exitY=1;exitDx=0;exitDy=0;entryX=1;entryY=0;entryDx=0;entryDy=0;" edge="1" source="v6DgjrGTPhHNJOSe_AkJ-31" target="v6DgjrGTPhHNJOSe_AkJ-31" parent="1">
          <mxGeometry width="50" height="50" relative="1" as="geometry">
            <mxPoint x="410" y="160" as="sourcePoint" />
            <mxPoint x="460" y="110" as="targetPoint" />
          </mxGeometry>
        </mxCell>
        <mxCell id="v6DgjrGTPhHNJOSe_AkJ-33" value="" style="endArrow=none;html=1;rounded=0;exitX=0;exitY=0;exitDx=0;exitDy=0;entryX=1;entryY=1;entryDx=0;entryDy=0;" edge="1" source="v6DgjrGTPhHNJOSe_AkJ-31" target="v6DgjrGTPhHNJOSe_AkJ-31" parent="1">
          <mxGeometry width="50" height="50" relative="1" as="geometry">
            <mxPoint x="20" y="130" as="sourcePoint" />
            <mxPoint x="80" y="70" as="targetPoint" />
          </mxGeometry>
        </mxCell>
        <mxCell id="v6DgjrGTPhHNJOSe_AkJ-36" value="" style="rounded=0;whiteSpace=wrap;html=1;" vertex="1" parent="1">
          <mxGeometry x="740" y="565" width="30" height="30" as="geometry" />
        </mxCell>
        <mxCell id="v6DgjrGTPhHNJOSe_AkJ-37" value="" style="endArrow=none;html=1;rounded=0;exitX=0;exitY=1;exitDx=0;exitDy=0;entryX=1;entryY=0;entryDx=0;entryDy=0;" edge="1" source="v6DgjrGTPhHNJOSe_AkJ-36" target="v6DgjrGTPhHNJOSe_AkJ-36" parent="1">
          <mxGeometry width="50" height="50" relative="1" as="geometry">
            <mxPoint x="470" y="160" as="sourcePoint" />
            <mxPoint x="520" y="110" as="targetPoint" />
          </mxGeometry>
        </mxCell>
        <mxCell id="v6DgjrGTPhHNJOSe_AkJ-38" value="" style="endArrow=none;html=1;rounded=0;exitX=0;exitY=0;exitDx=0;exitDy=0;entryX=1;entryY=1;entryDx=0;entryDy=0;" edge="1" source="v6DgjrGTPhHNJOSe_AkJ-36" target="v6DgjrGTPhHNJOSe_AkJ-36" parent="1">
          <mxGeometry width="50" height="50" relative="1" as="geometry">
            <mxPoint x="80" y="130" as="sourcePoint" />
            <mxPoint x="140" y="70" as="targetPoint" />
          </mxGeometry>
        </mxCell>
        <mxCell id="v6DgjrGTPhHNJOSe_AkJ-39" value="" style="rounded=0;whiteSpace=wrap;html=1;" vertex="1" parent="1">
          <mxGeometry x="790" y="565" width="30" height="30" as="geometry" />
        </mxCell>
        <mxCell id="v6DgjrGTPhHNJOSe_AkJ-40" value="" style="endArrow=none;html=1;rounded=0;exitX=0;exitY=1;exitDx=0;exitDy=0;entryX=1;entryY=0;entryDx=0;entryDy=0;" edge="1" source="v6DgjrGTPhHNJOSe_AkJ-39" target="v6DgjrGTPhHNJOSe_AkJ-39" parent="1">
          <mxGeometry width="50" height="50" relative="1" as="geometry">
            <mxPoint x="530" y="160" as="sourcePoint" />
            <mxPoint x="580" y="110" as="targetPoint" />
          </mxGeometry>
        </mxCell>
        <mxCell id="v6DgjrGTPhHNJOSe_AkJ-41" value="" style="endArrow=none;html=1;rounded=0;exitX=0;exitY=0;exitDx=0;exitDy=0;entryX=1;entryY=1;entryDx=0;entryDy=0;" edge="1" source="v6DgjrGTPhHNJOSe_AkJ-39" target="v6DgjrGTPhHNJOSe_AkJ-39" parent="1">
          <mxGeometry width="50" height="50" relative="1" as="geometry">
            <mxPoint x="140" y="130" as="sourcePoint" />
            <mxPoint x="200" y="70" as="targetPoint" />
          </mxGeometry>
        </mxCell>
        <mxCell id="v6DgjrGTPhHNJOSe_AkJ-42" value="Contact" style="text;html=1;align=center;verticalAlign=middle;whiteSpace=wrap;rounded=0;" vertex="1" parent="1">
          <mxGeometry x="110" y="565" width="60" height="30" as="geometry" />
        </mxCell>
        <mxCell id="v6DgjrGTPhHNJOSe_AkJ-43" value="About" style="text;html=1;align=center;verticalAlign=middle;whiteSpace=wrap;rounded=0;" vertex="1" parent="1">
          <mxGeometry x="30" y="565" width="60" height="30" as="geometry" />
        </mxCell>
        <mxCell id="v6DgjrGTPhHNJOSe_AkJ-44" value="Copyright" style="text;html=1;align=center;verticalAlign=middle;whiteSpace=wrap;rounded=0;" vertex="1" parent="1">
          <mxGeometry x="395" y="565" width="60" height="30" as="geometry" />
        </mxCell>
        <mxCell id="v6DgjrGTPhHNJOSe_AkJ-45" value="" style="rounded=1;whiteSpace=wrap;html=1;" vertex="1" parent="1">
          <mxGeometry x="160" y="300" width="550" height="140" as="geometry" />
        </mxCell>
        <mxCell id="v6DgjrGTPhHNJOSe_AkJ-47" value="&lt;p style=&quot;margin-top: 0px;&quot;&gt;&lt;b style=&quot;background-color: initial; font-size: 12px;&quot;&gt;About:&amp;nbsp;&lt;/b&gt;&lt;span style=&quot;background-color: initial; font-size: 12px; font-weight: normal;&quot;&gt;Lorem ipsum dolor sit amet, consectetur adipisicing elit, sed do eiusmod tempor incididunt ut labore et dolore magna aliqua.&amp;nbsp;&lt;/span&gt;&lt;span style=&quot;background-color: initial; font-size: 12px; font-weight: normal;&quot;&gt;Lorem ipsum dolor sit amet, consectetur adipisicing elit, sed do eiusmod tempor incididunt ut labore et dolore magna aliqua.&amp;nbsp;&lt;/span&gt;&lt;span style=&quot;background-color: initial; font-size: 12px; font-weight: normal;&quot;&gt;Lorem ipsum dolor sit amet, consectetur adipisicing elit, sed do eiusmod tempor incididunt ut labore et dolore magna aliqua.&lt;/span&gt;&lt;/p&gt;" style="text;html=1;whiteSpace=wrap;overflow=hidden;rounded=0;align=left;" vertex="1" parent="1">
          <mxGeometry x="200" y="327.5" width="470" height="105" as="geometry" />
        </mxCell>
        <mxCell id="v6DgjrGTPhHNJOSe_AkJ-48" value="Education" style="rounded=1;whiteSpace=wrap;html=1;" vertex="1" parent="1">
          <mxGeometry x="160" y="450" width="122" height="40" as="geometry" />
        </mxCell>
        <mxCell id="v6DgjrGTPhHNJOSe_AkJ-49" value="Experience" style="rounded=1;whiteSpace=wrap;html=1;align=center;" vertex="1" parent="1">
          <mxGeometry x="376.25" y="450" width="117.5" height="40" as="geometry" />
        </mxCell>
        <mxCell id="v6DgjrGTPhHNJOSe_AkJ-50" value="Project Showcase" style="rounded=1;whiteSpace=wrap;html=1;" vertex="1" parent="1">
          <mxGeometry x="592.5" y="450" width="117.5" height="40" as="geometry" />
        </mxCell>
      </root>
    </mxGraphModel>
  </diagram>
</mxfile>
